{"asset":{"generator":"3D Builder","version":"2.0"},"scene":0,"scenes":[{"nodes":[0]}],"nodes":[{"mesh":0,"matrix":[1,0,0,0,0,-1.1920928955078125E-7,-0.99999988079071045,0,0,0.99999988079071045,-1.1920928955078125E-7,0,3.1921882629394531,-2.8774138627341017E-10,6.1189842224121094,1]}],"meshes":[{"primitives":[{"attributes":{"POSITION":0,"TEXCOORD_0":1},"mode":4,"indices":2,"material":0}]}],"materials":[{"pbrMetallicRoughness":{"baseColorFactor":[1,1,1,1],"metallicFactor":0.62628763914108276,"roughnessFactor":0.68114495277404785},"alphaMode":"OPAQUE"}],"accessors":[{"bufferView":0,"byteOffset":0,"count":2920,"componentType":5126,"type":"VEC3","min":[-3.5899205207824707,5.7212533950805664,-0.017867572605609894],"max":[-2.7944560050964355,6.5167179107666016,0.017869029194116592]},{"bufferView":1,"byteOffset":0,"count":2920,"componentType":5126,"type":"VEC2"},{"bufferView":2,"byteOffset":0,"count":4512,"componentType":5125,"type":"SCALAR"}],"bufferViews":[{"buffer":0,"byteOffset":0,"byteLength":35040,"byteStride":12,"target":34962},{"buffer":0,"byteOffset":35040,"byteLength":23360,"byteStride":8,"target":34962},{"buffer":0,"byteOffset":58400,"byteLength":18048,"target":34963}],"buffers":[{"byteLength":76448,"uri":"gear.bin"}]}